inDegrees=yes
name=ik_lifting_orientations
DataType=double
version=3
OpenSimVersion=4.5-2024-01-10-34fd6af
endheader
time	pelvis_tilt	pelvis_list	pelvis_rotation	pelvis_tx	pelvis_ty	pelvis_tz	hip_flexion_r	hip_adduction_r	hip_rotation_r	knee_angle_r	knee_angle_r_beta	ankle_angle_r	subtalar_angle_r	mtp_angle_r	hip_flexion_l	hip_adduction_l	hip_rotation_l	knee_angle_l	knee_angle_l_beta	ankle_angle_l	subtalar_angle_l	mtp_angle_l	lumbar_extension	lumbar_bending	lumbar_rotation	arm_flex_r	arm_add_r	arm_rot_r	elbow_flex_r	pro_sup_r	wrist_flex_r	wrist_dev_r	arm_flex_l	arm_add_l	arm_rot_l	elbow_flex_l	pro_sup_l	wrist_flex_l	wrist_dev_l
1.68	-0.005963422492264019	-0.003814216716454172	2.437129324903464	0	0.9399999999999999	0	44.64278695182251	-10.00106265256004	0	59.98294315151779	1.046899853030569	-5.000083176101549	0	0	44.64278695182251	-10.00106265256004	0	59.98294315151779	1.046899853030569	-5.000083176101549	0	0	-0.003100532651128463	0.004462833050178015	-0.006508664054756953	1.28389770735566	-7.01063564968156	-8.969925097513352	89.29577651369425	45.00108476989294	0	0	0	-13.57135164766672	0	75.03214134775243	45.00108476989294	0	0
1.69	0.003865672845674659	-0.001232796605530328	2.435295992230041	0	0.9399999999999999	0	44.64483316430301	-10.00104152846723	0	59.98302027009267	1.046901199003615	-5.000081023673753	0	0	44.64483316430301	-10.00104152846723	0	59.98302027009267	1.046901199003615	-5.000081023673753	0	0	-0.005411084626427469	0.002538405597975981	-0.006108561189680057	1.271679507322693	-7.011855871191703	-8.970402562184782	89.29702362572382	45.00106767383228	0	0	0	-13.57553951052552	0	75.03195824572548	45.00106767383228	0	0
1.7	0.001237104678264823	-0.001372482992549011	2.436116924114699	0	0.9399999999999999	0	44.64503518683379	-10.00103973197543	0	59.98302799875459	1.046901333894213	-5.00008085050659	0	0	44.64503518683379	-10.00103973197543	0	59.98302799875459	1.046901333894213	-5.00008085050659	0	0	-0.004510873590317791	0.002397075362181274	-0.005611653171554155	1.273045852527997	-7.012773329371616	-8.969246074312462	89.29515960130705	45.00106615938821	0	0	0	-13.57596680150765	0	75.03194016797865	45.00106615938821	0	0
1.71	-0.00420355682382526	0.0001930516155266279	2.437142365608114	0	0.9399999999999999	0	44.64531254138659	-10.00103779902444	0	59.98303885130956	1.046901523307029	-5.000080685733432	0	0	44.64531254138659	-10.00103779902444	0	59.98303885130956	1.046901523307029	-5.000080685733432	0	0	-0.003538900313102839	0.001891486224660447	-0.004108803410561493	1.274376288210275	-7.012491945651522	-8.969994885407111	89.29898581583191	45.00106439936993	0	0	0	-13.57657916033134	0	75.03191534908268	45.00106439936993	0	0
1.72	-0.006244352909740698	-0.0008097848590072868	2.436250878392188	0	0.9399999999999999	0	44.64576276641256	-10.00103412368232	0	59.98305615354104	1.046901825287937	-5.00008034697266	0	0	44.64576276641256	-10.00103412368232	0	59.98305615354104	1.046901825287937	-5.00008034697266	0	0	-0.001555054317005459	0.001890999321756982	-0.006620405948958222	1.280907369478893	-7.013164924709694	-8.970906005359517	89.29847702351172	45.00106121333096	0	0	0	-13.57754390747601	0	75.03187506115053	45.00106121333096	0	0
1.73	-0.005079110007288728	-0.0005629634268184762	2.432429314804732	0	0.9399999999999999	0	44.64651312637406	-10.0010269403509	0	59.98308462254432	1.046902322165778	-5.000079636247269	0	0	44.64651312637406	-10.0010269403509	0	59.98308462254432	1.046902322165778	-5.000079636247269	0	0	0.0008302336672425496	0.003203219833265674	-0.009597673828662759	1.285066478759164	-7.01713580601261	-8.965006357494131	89.28149724379296	45.00105527582315	0	0	0	-13.57910416305731	0	75.03180791624636	45.00105527582315	0	0
1.74	-0.007774194653461203	-0.001015277962178065	2.439826677995046	0	0.9399999999999999	0	44.64658781377295	-10.00102705182669	0	59.98308774169829	1.046902376605285	-5.000079679483619	0	0	44.64658781377295	-10.00102705182669	0	59.98308774169829	1.046902376605285	-5.000079679483619	0	0	-0.002895826000505074	0.003715174224124531	-0.007475437731347136	1.283629795435715	-7.011274783642747	-8.970321511726549	89.29700964245822	45.00105517568354	0	0	0	-13.57929690297781	0	75.03180123271392	45.00105517568354	0	0
1.75	0.001324790557767952	-0.005295705476461749	2.433017245067602	0	0.9399999999999999	0	44.64704149231394	-10.00102300490037	0	59.98310509482882	1.046902679474548	-5.000079290730481	0	0	44.64704149231394	-10.00102300490037	0	59.98310509482882	1.046902679474548	-5.000079290730481	0	0	-0.008045248669257522	0.001640104640498741	-0.003191389604469686	1.266876311989612	-7.007152325249969	-8.974326931346372	89.31030787399111	45.00105176182629	0	0	0	-13.58025460268574	0	75.03176063584635	45.00105176182629	0	0
1.76	-0.000212606446189953	-0.00227984478494206	2.434804363967569	0	0.9399999999999999	0	44.64781859436562	-10.00101597443781	0	59.98313475873798	1.046903197207432	-5.00007861085771	0	0	44.64781859436562	-10.00101597443781	0	59.98313475873798	1.046903197207432	-5.00007861085771	0	0	-0.003981980599358691	0.002518036968808674	-0.003306151268619268	1.272476151496901	-7.011823212605703	-8.968803727196988	89.29695934917383	45.00104585656418	0	0	0	-13.58188992868742	0	75.03169109784913	45.00104585656418	0	0
1.77	-0.001622826282945995	0.0002829387076544809	2.432626221454806	0	0.9399999999999999	0	44.64841594911103	-10.00101072565624	0	59.98315760608961	1.046903595968944	-5.000078108557264	0	0	44.64841594911103	-10.00101072565624	0	59.98315760608961	1.046903595968944	-5.000078108557264	0	0	-0.001880763129334447	0.005814272673219175	-0.007062579246944116	1.279051979911744	-7.01217447554659	-8.967942538602939	89.29007965627358	45.00104141293772	0	0	0	-13.583154735858	0	75.03163764426665	45.00104141293772	0	0
1.78	-0.003051043298047331	-0.002162479288481292	2.435554911450935	0	0.9399999999999999	0	44.6485720272935	-10.00100971764971	0	59.98316370840601	1.046903702474457	-5.000078026758217	0	0	44.6485720272935	-10.00100971764971	0	59.98316370840601	1.046903702474457	-5.000078026758217	0	0	-0.002731573499160454	0.004546894111471988	-0.005911251624793228	1.278655558705306	-7.012122526611974	-8.968890441243692	89.29394811453993	45.00104046988558	0	0	0	-13.58350245537632	0	75.03162367768694	45.00104046988558	0	0
1.79	-0.003297937305780549	-0.001562247568598255	2.435152125764009	0	0.9399999999999999	0	44.64884988226569	-10.00100745896903	0	59.98317439128667	1.046903888925898	-5.000077818037627	0	0	44.64884988226569	-10.00100745896903	0	59.98317439128667	1.046903888925898	-5.000077818037627	0	0	-0.002506717083986921	0.00486539627886393	-0.006287869434360744	1.27976397467944	-7.012425194413228	-8.968348798569462	89.29249085767428	45.00103851233175	0	0	0	-13.58409918942078	0	75.03159881410915	45.00103851233175	0	0
1.8	-0.003296909897950035	-0.001745136954545777	2.435434730134526	0	0.9399999999999999	0	44.64907618367513	-10.00100572911001	0	59.9831831391994	1.046904041605778	-5.000077662867874	0	0	44.64907618367513	-10.00100572911001	0	59.9831831391994	1.046904041605778	-5.000077662867874	0	0	-0.002696652748792668	0.004646155696606556	-0.00614303555553428	1.279546980841955	-7.012388360304471	-8.968541788167109	89.29309379724891	45.00103698421004	0	0	0	-13.58459065606609	0	75.03157856371772	45.00103698421004	0	0
1.81	-0.003377306318840521	-0.001573390832221064	2.435359562024434	0	0.9399999999999999	0	44.64932657273015	-10.00100377474139	0	59.98319280036363	1.046904210224903	-5.000077485701357	0	0	44.64932657273015	-10.00100377474139	0	59.98319280036363	1.046904210224903	-5.000077485701357	0	0	-0.002701137926559827	0.004707658412175249	-0.006241742116228257	1.27989627227666	-7.012393747575966	-8.968482886315469	89.29294455123964	45.00103526915908	0	0	0	-13.58513245303813	0	75.03155615787615	45.00103526915908	0	0
1.82	-0.003366807451123549	-0.001514523339701939	2.435348779607522	0	0.9399999999999999	0	44.64957395577707	-10.00100184029412	0	59.98320234612157	1.046904376829809	-5.000077310128871	0	0	44.64957395577707	-10.00100184029412	0	59.98320234612157	1.046904376829809	-5.000077310128871	0	0	-0.002729466922050168	0.004704627679578224	-0.006275555792859201	1.280004829558608	-7.012435599675628	-8.968394473942496	89.29274120263629	45.00103357275803	0	0	0	-13.58566767355904	0	75.03153402102541	45.00103357275803	0	0
1.83	-0.00337197491168454	-0.001557353275122874	2.435409380800368	0	0.9399999999999999	0	44.64981508150917	-10.00099998068074	0	59.98321166067544	1.046904539399442	-5.000077142470999	0	0	44.64981508150917	-10.00099998068074	0	59.98321166067544	1.046904539399442	-5.000077142470999	0	0	-0.002804953424364881	0.004657986886952086	-0.006262244326608232	1.280022286468797	-7.01238949849287	-8.96845275301682	89.29292016427978	45.00103193498284	0	0	0	-13.58619065621096	0	75.03151244409716	45.00103193498284	0	0
1.84	-0.00338112960882558	-0.00148441785143925	2.435367840083666	0	0.9399999999999999	0	44.65006426305683	-10.0009980394603	0	59.98322127901267	1.046904707271095	-5.000076966530211	0	0	44.65006426305683	-10.0009980394603	0	59.98322127901267	1.046904707271095	-5.000076966530211	0	0	-0.002812792225131691	0.004688979478073328	-0.006315653794326095	1.280174660962067	-7.012405896772127	-8.968381430020855	89.29274081836667	45.00103023091268	0	0	0	-13.58673021919664	0	75.03149014630704	45.00103023091268	0	0
